<?xml version="1.0" encoding="iso-8859-1"?>
<!-- Generator: Adobe Illustrator 19.0.0, SVG Export Plug-In . SVG Version: 6.00 Build 0)  -->
<svg version="1.1" id="Capa_1" xmlns="http://www.w3.org/2000/svg" xmlns:xlink="http://www.w3.org/1999/xlink" x="0px" y="0px"
	 viewBox="0 0 511.996 511.996" style="enable-background:new 0 0 511.996 511.996;" xml:space="preserve">
<g>
	<g>
		<circle cx="377.484" cy="447.996" r="32"/>
	</g>
</g>
<g>
	<g>
		<path d="M479.852,41.244c-5.824-5.952-13.696-9.248-22.112-9.248c-16.16,0-29.856,12.064-31.776,28.608L377.676,365.5
			c-1.312,8.416,4.16,16.416,12.512,18.144c1.12,0.224,2.208,0.352,3.296,0.352c7.136,0,13.568-4.736,15.456-11.872l79.2-297.952
			c0.16-0.576,0.288-1.056,0.352-1.632c0.64-1.664,0.96-3.424,0.992-5.216C489.708,57.052,486.284,47.804,479.852,41.244z"/>
	</g>
</g>
<g>
	<g>
		<path d="M313.708,10.46c-3.04-4.544-8.32-6.848-13.696-7.04c-7.52,0.288-14.912-0.704-21.856-2.752
			c-7.936-2.272-16.16,1.632-19.328,9.184l-89.12,214.688L80.108,9.852C76.94,2.3,68.62-1.668,60.78,0.668
			c-6.976,2.08-14.208,2.816-21.76,2.752c-5.632-0.224-10.688,2.464-13.76,7.008s-3.616,10.336-1.44,15.36l113.664,261.504v208.704
			c0,8.832,7.168,16,16,16h32c8.832,0,16-7.168,16-16l0.192-209.152L315.148,25.788C317.292,20.764,316.78,14.972,313.708,10.46z"/>
	</g>
</g>
<g>
</g>
<g>
</g>
<g>
</g>
<g>
</g>
<g>
</g>
<g>
</g>
<g>
</g>
<g>
</g>
<g>
</g>
<g>
</g>
<g>
</g>
<g>
</g>
<g>
</g>
<g>
</g>
<g>
</g>
</svg>
