<?xml version="1.0" encoding="iso-8859-1"?>
<!-- Generator: Adobe Illustrator 19.0.0, SVG Export Plug-In . SVG Version: 6.00 Build 0)  -->
<svg version="1.1" id="Capa_1" xmlns="http://www.w3.org/2000/svg" xmlns:xlink="http://www.w3.org/1999/xlink" x="0px" y="0px"
	 viewBox="0 0 512 512" style="enable-background:new 0 0 512 512;" xml:space="preserve">
<g>
	<g>
		<path d="M99.232,288c14.88,72.928,79.52,128,156.768,128s141.888-55.072,156.768-128H99.232z"/>
	</g>
</g>
<g>
	<g>
		<path d="M256,0C114.624,0,0,114.624,0,256s114.624,256,256,256s256-114.624,256-256S397.376,0,256,0z M336,112
			c17.664,0,32,14.336,32,32s-14.336,32-32,32s-32-14.336-32-32S318.336,112,336,112z M176,112c17.664,0,32,14.336,32,32
			s-14.336,32-32,32s-32-14.336-32-32S158.336,112,176,112z M256,448c-105.888,0-192-86.112-192-192v-32h384v32
			C448,361.888,361.888,448,256,448z"/>
	</g>
</g>
<g>
</g>
<g>
</g>
<g>
</g>
<g>
</g>
<g>
</g>
<g>
</g>
<g>
</g>
<g>
</g>
<g>
</g>
<g>
</g>
<g>
</g>
<g>
</g>
<g>
</g>
<g>
</g>
<g>
</g>
</svg>
