<?xml version="1.0" encoding="iso-8859-1"?>
<!-- Generator: Adobe Illustrator 19.0.0, SVG Export Plug-In . SVG Version: 6.00 Build 0)  -->
<svg version="1.1" id="Capa_1" xmlns="http://www.w3.org/2000/svg" xmlns:xlink="http://www.w3.org/1999/xlink" x="0px" y="0px"
	 viewBox="0 0 480 480" style="enable-background:new 0 0 480 480;" xml:space="preserve">
<g>
	<g>
		<path d="M240,32c-61.76,0-112,50.24-112,112v192c0,8.8-7.168,16-16,16c-8.832,0-16-7.2-16-16v-80H0v80c0,61.76,50.24,112,112,112
			s112-50.24,112-112V144c0-8.832,7.168-16,16-16c8.832,0,16,7.168,16,16v60.768l48,32l48-32V144C352,82.24,301.76,32,240,32z"/>
	</g>
</g>
<g>
	<g>
		<path d="M384,256v80c0,8.8-7.2,16-16,16s-16-7.2-16-16v-92.768l-39.136,26.08c-2.688,1.792-5.76,2.688-8.864,2.688
			s-6.176-0.896-8.864-2.688L256,243.232V336c0,61.76,50.24,112,112,112s112-50.24,112-112v-80H384z"/>
	</g>
</g>
<g>
</g>
<g>
</g>
<g>
</g>
<g>
</g>
<g>
</g>
<g>
</g>
<g>
</g>
<g>
</g>
<g>
</g>
<g>
</g>
<g>
</g>
<g>
</g>
<g>
</g>
<g>
</g>
<g>
</g>
</svg>
