<?xml version="1.0" encoding="iso-8859-1"?>
<!-- Generator: Adobe Illustrator 19.0.0, SVG Export Plug-In . SVG Version: 6.00 Build 0)  -->
<svg version="1.1" id="Capa_1" xmlns="http://www.w3.org/2000/svg" xmlns:xlink="http://www.w3.org/1999/xlink" x="0px" y="0px"
	 viewBox="0 0 512 512" style="enable-background:new 0 0 512 512;" xml:space="preserve">
<g>
	<g>
		<path d="M416,288c-52.928,0-96,43.072-96,96v16c0,8.832,7.168,16,16,16h160c8.832,0,16-7.168,16-16v-16
			C512,331.072,468.928,288,416,288z"/>
	</g>
</g>
<g>
	<g>
		<circle cx="416" cy="176" r="80"/>
	</g>
</g>
<g>
	<g>
		<path d="M224,288c-44.096,0-80,35.872-80,80v32c0,8.832,7.168,16,16,16h128c8.832,0,16-7.168,16-16v-32
			C304,323.872,268.096,288,224,288z"/>
	</g>
</g>
<g>
	<g>
		<path d="M64,288c-35.296,0-64,28.704-64,64v48c0,8.832,7.168,16,16,16h96c8.832,0,16-7.168,16-16v-48
			C128,316.704,99.296,288,64,288z"/>
	</g>
</g>
<g>
	<g>
		<circle cx="224" cy="192" r="72"/>
	</g>
</g>
<g>
	<g>
		<circle cx="64" cy="208" r="56"/>
	</g>
</g>
<g>
</g>
<g>
</g>
<g>
</g>
<g>
</g>
<g>
</g>
<g>
</g>
<g>
</g>
<g>
</g>
<g>
</g>
<g>
</g>
<g>
</g>
<g>
</g>
<g>
</g>
<g>
</g>
<g>
</g>
</svg>
