<?xml version="1.0" encoding="iso-8859-1"?>
<!-- Generator: Adobe Illustrator 19.0.0, SVG Export Plug-In . SVG Version: 6.00 Build 0)  -->
<svg version="1.1" id="Capa_1" xmlns="http://www.w3.org/2000/svg" xmlns:xlink="http://www.w3.org/1999/xlink" x="0px" y="0px"
	 viewBox="0 0 512 512" style="enable-background:new 0 0 512 512;" xml:space="preserve">
<g>
	<g>
		<path d="M448,192H320V96c0-35.296-28.704-64-64-64h-48c-8.832,0-16,7.168-16,16v75.744l-61.888,108.32
			C128.704,234.496,128,237.216,128,240v224c0,8.832,7.168,16,16,16h256.8c25.28,0,48.256-14.944,58.464-38.016l51.328-115.488
			C511.52,324.448,512,322.24,512,320v-64C512,220.704,483.296,192,448,192z"/>
	</g>
</g>
<g>
	<g>
		<path d="M16,224c-8.832,0-16,7.168-16,16v224c0,8.832,7.168,16,16,16h80V224H16z"/>
	</g>
</g>
<g>
</g>
<g>
</g>
<g>
</g>
<g>
</g>
<g>
</g>
<g>
</g>
<g>
</g>
<g>
</g>
<g>
</g>
<g>
</g>
<g>
</g>
<g>
</g>
<g>
</g>
<g>
</g>
<g>
</g>
</svg>
