<?xml version="1.0" encoding="iso-8859-1"?>
<!-- Generator: Adobe Illustrator 19.0.0, SVG Export Plug-In . SVG Version: 6.00 Build 0)  -->
<svg version="1.1" id="Capa_1" xmlns="http://www.w3.org/2000/svg" xmlns:xlink="http://www.w3.org/1999/xlink" x="0px" y="0px"
	 viewBox="0 0 512 512" style="enable-background:new 0 0 512 512;" xml:space="preserve">
<g>
	<g>
		<path d="M340.121,256l111.072-122.208c29.728-32.672,27.328-83.296-5.376-113.024c-32.704-29.664-83.296-27.264-112.992,5.376
			L199.993,172.288V80c0-44.192-35.808-80-80-80s-80,35.808-80,80v352c0,44.192,35.808,80,80,80s80-35.808,80-80v-92.256
			l132.8,146.08C348.601,503.2,370.265,512,392.025,512c19.2,0,38.464-6.88,53.792-20.8c32.672-29.728,35.104-80.32,5.376-112.992
			L340.121,256z"/>
	</g>
</g>
<g>
</g>
<g>
</g>
<g>
</g>
<g>
</g>
<g>
</g>
<g>
</g>
<g>
</g>
<g>
</g>
<g>
</g>
<g>
</g>
<g>
</g>
<g>
</g>
<g>
</g>
<g>
</g>
<g>
</g>
</svg>
