<?xml version="1.0" encoding="iso-8859-1"?>
<!-- Generator: Adobe Illustrator 19.0.0, SVG Export Plug-In . SVG Version: 6.00 Build 0)  -->
<svg version="1.1" id="Capa_1" xmlns="http://www.w3.org/2000/svg" xmlns:xlink="http://www.w3.org/1999/xlink" x="0px" y="0px"
	 viewBox="0 0 512 512" style="enable-background:new 0 0 512 512;" xml:space="preserve">
<g>
	<g>
		<path d="M356.928,382.592l-61.76,31.072c-2.272,1.184-4.736,1.696-7.168,1.696V512h176L256,0L48,512h176V407.328
			c-4.032-0.096-8-1.6-11.04-4.704l-41.28-41.632c-6.208-6.24-6.176-16.416,0.096-22.624c6.272-6.208,16.416-6.144,22.624,0.128
			l29.6,29.856V288h64v42.208l21.856-14.56c7.264-4.864,17.248-2.944,22.176,4.448c4.896,7.328,2.912,17.28-4.448,22.176
			l-30.72,20.48c-2.72,1.824-5.792,2.688-8.864,2.688v16.032l54.56-27.456c7.808-4.064,17.472-0.832,21.472,7.104
			C368,369.024,364.832,378.624,356.928,382.592z"/>
	</g>
</g>
<g>
</g>
<g>
</g>
<g>
</g>
<g>
</g>
<g>
</g>
<g>
</g>
<g>
</g>
<g>
</g>
<g>
</g>
<g>
</g>
<g>
</g>
<g>
</g>
<g>
</g>
<g>
</g>
<g>
</g>
</svg>
