<?xml version="1.0" encoding="iso-8859-1"?>
<!-- Generator: Adobe Illustrator 19.0.0, SVG Export Plug-In . SVG Version: 6.00 Build 0)  -->
<svg version="1.1" id="Capa_1" xmlns="http://www.w3.org/2000/svg" xmlns:xlink="http://www.w3.org/1999/xlink" x="0px" y="0px"
	 viewBox="0 0 512 512" style="enable-background:new 0 0 512 512;" xml:space="preserve">
<g>
	<g>
		<path d="M510.592,185.504L459.264,70.016C449.056,46.944,426.08,32,400.8,32H144c-8.832,0-16,7.168-16,16v224
			c0,2.784,0.704,5.504,2.112,7.936L192,388.256V464c0,8.832,7.168,16,16,16h48c35.296,0,64-28.704,64-64v-96h128
			c35.296,0,64-28.704,64-64v-64C512,189.76,511.52,187.552,510.592,185.504z"/>
	</g>
</g>
<g>
	<g>
		<path d="M16,32C7.168,32,0,39.168,0,48v224c0,8.832,7.168,16,16,16h80V32H16z"/>
	</g>
</g>
<g>
</g>
<g>
</g>
<g>
</g>
<g>
</g>
<g>
</g>
<g>
</g>
<g>
</g>
<g>
</g>
<g>
</g>
<g>
</g>
<g>
</g>
<g>
</g>
<g>
</g>
<g>
</g>
<g>
</g>
</svg>
