<?xml version="1.0" encoding="iso-8859-1"?>
<!-- Generator: Adobe Illustrator 19.0.0, SVG Export Plug-In . SVG Version: 6.00 Build 0)  -->
<svg version="1.1" id="Capa_1" xmlns="http://www.w3.org/2000/svg" xmlns:xlink="http://www.w3.org/1999/xlink" x="0px" y="0px"
	 viewBox="0 0 512 512" style="enable-background:new 0 0 512 512;" xml:space="preserve">
<g>
	<g>
		<path d="M433.024,227.296c-4.512-1.504-8.864-2.944-13.024-4.32c-31.872-10.4-51.072-16.704-51.072-42.464
			c0-20.896,15.52-36.032,36.896-36.032c16.384,0,28.608,7.072,39.552,23.008c1.024,1.472,2.976,2.016,4.544,1.152l32.16-17.056
			c0.864-0.448,1.536-1.248,1.792-2.24c0.256-0.992,0.16-2.016-0.288-2.912c-17.248-31.808-42.08-47.264-75.968-47.264
			c-51.552,0-84.896,32.416-84.896,82.56c0,51.264,32.256,72.032,91.712,92.352c34.432,11.936,49.696,18.24,49.696,43.712
			c0,28.64-24.864,49.216-58.784,48c-35.552-1.248-46.304-20.8-59.84-52.864c-22.912-54.304-48.992-117.664-49.216-118.272
			C270.144,131.936,218.272,96,153.984,96C69.088,96,0,167.776,0,256.032C0,344.224,69.088,416,153.984,416
			c46.304,0,89.728-21.312,119.104-58.528c0.832-1.088,1.056-2.56,0.512-3.84l-19.392-46.528c-0.544-1.28-1.792-2.176-3.168-2.24
			c-1.408-0.064-2.656,0.736-3.296,1.984c-18.336,36.384-54.272,58.976-93.76,58.976C95.712,365.824,48.32,316.576,48.32,256
			s47.392-109.824,105.664-109.824c42.432,0,81.28,26.144,96.736,65.184l48.032,113.76l5.536,12.768
			c21.696,52.512,53.6,76.064,103.552,76.256c59.392,0,104.16-40.896,104.16-95.104C512,264.672,483.04,244.256,433.024,227.296z"/>
	</g>
</g>
<g>
</g>
<g>
</g>
<g>
</g>
<g>
</g>
<g>
</g>
<g>
</g>
<g>
</g>
<g>
</g>
<g>
</g>
<g>
</g>
<g>
</g>
<g>
</g>
<g>
</g>
<g>
</g>
<g>
</g>
</svg>
